<svg width="800" height="400" xmlns="http://www.w3.org/2000/svg">
  <!-- Background -->
  <rect width="800" height="400" fill="white"/>

  <!-- Title -->
  <text x="400" y="30" text-anchor="middle" font-size="18" font-weight="bold" fill="#1f2937">
    Computed Access - Performance Trend
  </text>

  <!-- Grid lines -->
  <line x1="60" y1="60" x2="740" y2="60" stroke="#e5e7eb" stroke-width="1"/>
  <text x="50" y="65" text-anchor="end" font-size="12" fill="#6b7280">
    39.1M
  </text>
  <line x1="60" y1="116" x2="740" y2="116" stroke="#e5e7eb" stroke-width="1"/>
  <text x="50" y="121" text-anchor="end" font-size="12" fill="#6b7280">
    31.2M
  </text>
  <line x1="60" y1="172" x2="740" y2="172" stroke="#e5e7eb" stroke-width="1"/>
  <text x="50" y="177" text-anchor="end" font-size="12" fill="#6b7280">
    23.4M
  </text>
  <line x1="60" y1="228" x2="740" y2="228" stroke="#e5e7eb" stroke-width="1"/>
  <text x="50" y="233" text-anchor="end" font-size="12" fill="#6b7280">
    15.6M
  </text>
  <line x1="60" y1="284" x2="740" y2="284" stroke="#e5e7eb" stroke-width="1"/>
  <text x="50" y="289" text-anchor="end" font-size="12" fill="#6b7280">
    7.8M
  </text>
  <line x1="60" y1="340" x2="740" y2="340" stroke="#e5e7eb" stroke-width="1"/>
  <text x="50" y="345" text-anchor="end" font-size="12" fill="#6b7280">
    0
  </text>
  <text x="60" y="365" text-anchor="middle" font-size="10" fill="#6b7280" transform="rotate(-45, 60, 365)">
    11-06
  </text>
  <text x="286.66666666666663" y="365" text-anchor="middle" font-size="10" fill="#6b7280" transform="rotate(-45, 286.66666666666663, 365)">
    11-07
  </text>
  <text x="513.3333333333333" y="365" text-anchor="middle" font-size="10" fill="#6b7280" transform="rotate(-45, 513.3333333333333, 365)">
    11-09
  </text>
  <text x="740" y="365" text-anchor="middle" font-size="10" fill="#6b7280" transform="rotate(-45, 740, 365)">
    11-10
  </text>
  <polyline points="60,85.45454545454547 286.66666666666663,93.60709150036419 513.3333333333333,267.575641227625 740,270.0676120899842" fill="none" stroke="#3b82f6" stroke-width="2"/>
  <circle cx="60" cy="85.45454545454547" r="4" fill="#3b82f6"/>
  <circle cx="286.66666666666663" cy="93.60709150036419" r="4" fill="#3b82f6"/>
  <circle cx="513.3333333333333" cy="267.575641227625" r="4" fill="#3b82f6"/>
  <circle cx="740" cy="270.0676120899842" r="4" fill="#3b82f6"/>
  <polyline points="60,113.61660986962775 286.66666666666663,127.18311856592555 513.3333333333333,270.77485712282544 740,275.0357974795851" fill="none" stroke="#ef4444" stroke-width="2"/>
  <circle cx="60" cy="113.61660986962775" r="4" fill="#ef4444"/>
  <circle cx="286.66666666666663" cy="127.18311856592555" r="4" fill="#ef4444"/>
  <circle cx="513.3333333333333" cy="270.77485712282544" r="4" fill="#ef4444"/>
  <circle cx="740" cy="275.0357974795851" r="4" fill="#ef4444"/>
  <polyline points="60,319.81511876682475 286.66666666666663,321.90495537840184 513.3333333333333,333.1106687053197 740,333.16450916066367" fill="none" stroke="#10b981" stroke-width="2"/>
  <circle cx="60" cy="319.81511876682475" r="4" fill="#10b981"/>
  <circle cx="286.66666666666663" cy="321.90495537840184" r="4" fill="#10b981"/>
  <circle cx="513.3333333333333" cy="333.1106687053197" r="4" fill="#10b981"/>
  <circle cx="740" cy="333.16450916066367" r="4" fill="#10b981"/>
  <polyline points="60,271.0228969284856 286.66666666666663,278.42087130089413 513.3333333333333,316.1371713043496 740,317.0803104639602" fill="none" stroke="#f59e0b" stroke-width="2"/>
  <circle cx="60" cy="271.0228969284856" r="4" fill="#f59e0b"/>
  <circle cx="286.66666666666663" cy="278.42087130089413" r="4" fill="#f59e0b"/>
  <circle cx="513.3333333333333" cy="316.1371713043496" r="4" fill="#f59e0b"/>
  <circle cx="740" cy="317.0803104639602" r="4" fill="#f59e0b"/>
  <polyline points="60,164.7134148941357 286.66666666666663,180.23708363319108 513.3333333333333,293.6633793430116 740,294.91001673827424" fill="none" stroke="#8b5cf6" stroke-width="2"/>
  <circle cx="60" cy="164.7134148941357" r="4" fill="#8b5cf6"/>
  <circle cx="286.66666666666663" cy="180.23708363319108" r="4" fill="#8b5cf6"/>
  <circle cx="513.3333333333333" cy="293.6633793430116" r="4" fill="#8b5cf6"/>
  <circle cx="740" cy="294.91001673827424" r="4" fill="#8b5cf6"/>
  <polyline points="60,94.52475574768181 286.66666666666663,113.5482371487476 513.3333333333333,266.56688765127166 740,269.2143980904151" fill="none" stroke="#ec4899" stroke-width="2"/>
  <circle cx="60" cy="94.52475574768181" r="4" fill="#ec4899"/>
  <circle cx="286.66666666666663" cy="113.5482371487476" r="4" fill="#ec4899"/>
  <circle cx="513.3333333333333" cy="266.56688765127166" r="4" fill="#ec4899"/>
  <circle cx="740" cy="269.2143980904151" r="4" fill="#ec4899"/>
  <polyline points="60,89.67928132640364 286.66666666666663,111.14274679641869 513.3333333333333,266.65883887288817 740,266.79943891079296" fill="none" stroke="#06b6d4" stroke-width="2"/>
  <circle cx="60" cy="89.67928132640364" r="4" fill="#06b6d4"/>
  <circle cx="286.66666666666663" cy="111.14274679641869" r="4" fill="#06b6d4"/>
  <circle cx="513.3333333333333" cy="266.65883887288817" r="4" fill="#06b6d4"/>
  <circle cx="740" cy="266.79943891079296" r="4" fill="#06b6d4"/>
  <polyline points="60,94.20063974755288 286.66666666666663,99.59046904992496 513.3333333333333,269.19570207808465 740,269.14442285185" fill="none" stroke="#84cc16" stroke-width="2"/>
  <circle cx="60" cy="94.20063974755288" r="4" fill="#84cc16"/>
  <circle cx="286.66666666666663" cy="99.59046904992496" r="4" fill="#84cc16"/>
  <circle cx="513.3333333333333" cy="269.19570207808465" r="4" fill="#84cc16"/>
  <circle cx="740" cy="269.14442285185" r="4" fill="#84cc16"/>
  <rect x="650" y="42" width="12" height="12" fill="#3b82f6"/>
  <text x="668" y="53" font-size="12" fill="#374151">Redux Toolkit</text>
  <rect x="650" y="62" width="12" height="12" fill="#ef4444"/>
  <text x="668" y="73" font-size="12" fill="#374151">Zustand</text>
  <rect x="650" y="82" width="12" height="12" fill="#10b981"/>
  <text x="668" y="93" font-size="12" fill="#374151">Jotai</text>
  <rect x="650" y="102" width="12" height="12" fill="#f59e0b"/>
  <text x="668" y="113" font-size="12" fill="#374151">MobX</text>
  <rect x="650" y="122" width="12" height="12" fill="#8b5cf6"/>
  <text x="668" y="133" font-size="12" fill="#374151">Valtio</text>
  <rect x="650" y="142" width="12" height="12" fill="#ec4899"/>
  <text x="668" y="153" font-size="12" fill="#374151">Preact Signals</text>
  <rect x="650" y="162" width="12" height="12" fill="#06b6d4"/>
  <text x="668" y="173" font-size="12" fill="#374151">Solid Signals</text>
  <rect x="650" y="182" width="12" height="12" fill="#84cc16"/>
  <text x="668" y="193" font-size="12" fill="#374151">Zen</text>
</svg>