<svg width="800" height="400" xmlns="http://www.w3.org/2000/svg">
  <!-- Background -->
  <rect width="800" height="400" fill="white"/>

  <!-- Title -->
  <text x="400" y="30" text-anchor="middle" font-size="18" font-weight="bold" fill="#1f2937">
    Nested Update - Performance Trend
  </text>

  <!-- Grid lines -->
  <line x1="60" y1="60" x2="740" y2="60" stroke="#e5e7eb" stroke-width="1"/>
  <text x="50" y="65" text-anchor="end" font-size="12" fill="#6b7280">
    31.6M
  </text>
  <line x1="60" y1="116" x2="740" y2="116" stroke="#e5e7eb" stroke-width="1"/>
  <text x="50" y="121" text-anchor="end" font-size="12" fill="#6b7280">
    25.3M
  </text>
  <line x1="60" y1="172" x2="740" y2="172" stroke="#e5e7eb" stroke-width="1"/>
  <text x="50" y="177" text-anchor="end" font-size="12" fill="#6b7280">
    18.9M
  </text>
  <line x1="60" y1="228" x2="740" y2="228" stroke="#e5e7eb" stroke-width="1"/>
  <text x="50" y="233" text-anchor="end" font-size="12" fill="#6b7280">
    12.6M
  </text>
  <line x1="60" y1="284" x2="740" y2="284" stroke="#e5e7eb" stroke-width="1"/>
  <text x="50" y="289" text-anchor="end" font-size="12" fill="#6b7280">
    6.3M
  </text>
  <line x1="60" y1="340" x2="740" y2="340" stroke="#e5e7eb" stroke-width="1"/>
  <text x="50" y="345" text-anchor="end" font-size="12" fill="#6b7280">
    0
  </text>
  <text x="60" y="365" text-anchor="middle" font-size="10" fill="#6b7280" transform="rotate(-45, 60, 365)">
    11-06
  </text>
  <text x="286.66666666666663" y="365" text-anchor="middle" font-size="10" fill="#6b7280" transform="rotate(-45, 286.66666666666663, 365)">
    11-07
  </text>
  <text x="513.3333333333333" y="365" text-anchor="middle" font-size="10" fill="#6b7280" transform="rotate(-45, 513.3333333333333, 365)">
    11-09
  </text>
  <text x="740" y="365" text-anchor="middle" font-size="10" fill="#6b7280" transform="rotate(-45, 740, 365)">
    11-10
  </text>
  <polyline points="60,334.2174056378335 286.66666666666663,334.3880622198567 513.3333333333333,338.24968241175736 740,338.21447196066515" fill="none" stroke="#3b82f6" stroke-width="2"/>
  <circle cx="60" cy="334.2174056378335" r="4" fill="#3b82f6"/>
  <circle cx="286.66666666666663" cy="334.3880622198567" r="4" fill="#3b82f6"/>
  <circle cx="513.3333333333333" cy="338.24968241175736" r="4" fill="#3b82f6"/>
  <circle cx="740" cy="338.21447196066515" r="4" fill="#3b82f6"/>
  <polyline points="60,336.63369178955463 286.66666666666663,336.5327676149845 513.3333333333333,338.57512258694254 740,338.58119442468546" fill="none" stroke="#ef4444" stroke-width="2"/>
  <circle cx="60" cy="336.63369178955463" r="4" fill="#ef4444"/>
  <circle cx="286.66666666666663" cy="336.5327676149845" r="4" fill="#ef4444"/>
  <circle cx="513.3333333333333" cy="338.57512258694254" r="4" fill="#ef4444"/>
  <circle cx="740" cy="338.58119442468546" r="4" fill="#ef4444"/>
  <polyline points="60,320.5905679998705 286.66666666666663,322.38123778496316 513.3333333333333,334.18355066234994 740,334.0061566292126" fill="none" stroke="#10b981" stroke-width="2"/>
  <circle cx="60" cy="320.5905679998705" r="4" fill="#10b981"/>
  <circle cx="286.66666666666663" cy="322.38123778496316" r="4" fill="#10b981"/>
  <circle cx="513.3333333333333" cy="334.18355066234994" r="4" fill="#10b981"/>
  <circle cx="740" cy="334.0061566292126" r="4" fill="#10b981"/>
  <polyline points="60,289.3964794631174 286.66666666666663,288.7951743159176 513.3333333333333,324.42663081212226 740,324.76028317910675" fill="none" stroke="#f59e0b" stroke-width="2"/>
  <circle cx="60" cy="289.3964794631174" r="4" fill="#f59e0b"/>
  <circle cx="286.66666666666663" cy="288.7951743159176" r="4" fill="#f59e0b"/>
  <circle cx="513.3333333333333" cy="324.42663081212226" r="4" fill="#f59e0b"/>
  <circle cx="740" cy="324.76028317910675" r="4" fill="#f59e0b"/>
  <polyline points="60,292.90665677127595 286.66666666666663,294.3676122258408 513.3333333333333,328.0414207593264 740,327.92988055803244" fill="none" stroke="#8b5cf6" stroke-width="2"/>
  <circle cx="60" cy="292.90665677127595" r="4" fill="#8b5cf6"/>
  <circle cx="286.66666666666663" cy="294.3676122258408" r="4" fill="#8b5cf6"/>
  <circle cx="513.3333333333333" cy="328.0414207593264" r="4" fill="#8b5cf6"/>
  <circle cx="740" cy="327.92988055803244" r="4" fill="#8b5cf6"/>
  <polyline points="60,101.4308733183413 286.66666666666663,103.52535235076158 513.3333333333333,264.40848104686734 740,267.6544775398156" fill="none" stroke="#ec4899" stroke-width="2"/>
  <circle cx="60" cy="101.4308733183413" r="4" fill="#ec4899"/>
  <circle cx="286.66666666666663" cy="103.52535235076158" r="4" fill="#ec4899"/>
  <circle cx="513.3333333333333" cy="264.40848104686734" r="4" fill="#ec4899"/>
  <circle cx="740" cy="267.6544775398156" r="4" fill="#ec4899"/>
  <polyline points="60,85.45454545454547 286.66666666666663,118.0957920670325 513.3333333333333,262.6959693340936 740,263.75158938238627" fill="none" stroke="#06b6d4" stroke-width="2"/>
  <circle cx="60" cy="85.45454545454547" r="4" fill="#06b6d4"/>
  <circle cx="286.66666666666663" cy="118.0957920670325" r="4" fill="#06b6d4"/>
  <circle cx="513.3333333333333" cy="262.6959693340936" r="4" fill="#06b6d4"/>
  <circle cx="740" cy="263.75158938238627" r="4" fill="#06b6d4"/>
  <polyline points="60,106.3671040984234 286.66666666666663,111.17670031259286 513.3333333333333,266.8827525936641 740,268.9602666870773" fill="none" stroke="#84cc16" stroke-width="2"/>
  <circle cx="60" cy="106.3671040984234" r="4" fill="#84cc16"/>
  <circle cx="286.66666666666663" cy="111.17670031259286" r="4" fill="#84cc16"/>
  <circle cx="513.3333333333333" cy="266.8827525936641" r="4" fill="#84cc16"/>
  <circle cx="740" cy="268.9602666870773" r="4" fill="#84cc16"/>
  <rect x="650" y="42" width="12" height="12" fill="#3b82f6"/>
  <text x="668" y="53" font-size="12" fill="#374151">Redux Toolkit</text>
  <rect x="650" y="62" width="12" height="12" fill="#ef4444"/>
  <text x="668" y="73" font-size="12" fill="#374151">Zustand</text>
  <rect x="650" y="82" width="12" height="12" fill="#10b981"/>
  <text x="668" y="93" font-size="12" fill="#374151">Jotai</text>
  <rect x="650" y="102" width="12" height="12" fill="#f59e0b"/>
  <text x="668" y="113" font-size="12" fill="#374151">MobX</text>
  <rect x="650" y="122" width="12" height="12" fill="#8b5cf6"/>
  <text x="668" y="133" font-size="12" fill="#374151">Valtio</text>
  <rect x="650" y="142" width="12" height="12" fill="#ec4899"/>
  <text x="668" y="153" font-size="12" fill="#374151">Preact Signals</text>
  <rect x="650" y="162" width="12" height="12" fill="#06b6d4"/>
  <text x="668" y="173" font-size="12" fill="#374151">Solid Signals</text>
  <rect x="650" y="182" width="12" height="12" fill="#84cc16"/>
  <text x="668" y="193" font-size="12" fill="#374151">Zen</text>
</svg>