<svg width="800" height="400" xmlns="http://www.w3.org/2000/svg">
  <!-- Background -->
  <rect width="800" height="400" fill="white"/>

  <!-- Title -->
  <text x="400" y="30" text-anchor="middle" font-size="18" font-weight="bold" fill="#1f2937">
    Dynamic Route Matching (1 param) - Performance Trend
  </text>

  <!-- Grid lines -->
  <line x1="60" y1="60" x2="740" y2="60" stroke="#e5e7eb" stroke-width="1"/>
  <text x="50" y="65" text-anchor="end" font-size="12" fill="#6b7280">
    2.6M
  </text>
  <line x1="60" y1="116" x2="740" y2="116" stroke="#e5e7eb" stroke-width="1"/>
  <text x="50" y="121" text-anchor="end" font-size="12" fill="#6b7280">
    2.1M
  </text>
  <line x1="60" y1="172" x2="740" y2="172" stroke="#e5e7eb" stroke-width="1"/>
  <text x="50" y="177" text-anchor="end" font-size="12" fill="#6b7280">
    1.6M
  </text>
  <line x1="60" y1="228" x2="740" y2="228" stroke="#e5e7eb" stroke-width="1"/>
  <text x="50" y="233" text-anchor="end" font-size="12" fill="#6b7280">
    1.1M
  </text>
  <line x1="60" y1="284" x2="740" y2="284" stroke="#e5e7eb" stroke-width="1"/>
  <text x="50" y="289" text-anchor="end" font-size="12" fill="#6b7280">
    529K
  </text>
  <line x1="60" y1="340" x2="740" y2="340" stroke="#e5e7eb" stroke-width="1"/>
  <text x="50" y="345" text-anchor="end" font-size="12" fill="#6b7280">
    0
  </text>
  <text x="60" y="365" text-anchor="middle" font-size="10" fill="#6b7280" transform="rotate(-45, 60, 365)">
    11-07
  </text>
  <text x="286.66666666666663" y="365" text-anchor="middle" font-size="10" fill="#6b7280" transform="rotate(-45, 286.66666666666663, 365)">
    11-08
  </text>
  <text x="513.3333333333333" y="365" text-anchor="middle" font-size="10" fill="#6b7280" transform="rotate(-45, 513.3333333333333, 365)">
    11-09
  </text>
  <text x="740" y="365" text-anchor="middle" font-size="10" fill="#6b7280" transform="rotate(-45, 740, 365)">
    11-10
  </text>
  <polyline points="60,335.8532515058356 286.66666666666663,335.8741366307076 513.3333333333333,335.7927100777514 740,335.82283902371415" fill="none" stroke="#3b82f6" stroke-width="2"/>
  <circle cx="60" cy="335.8532515058356" r="4" fill="#3b82f6"/>
  <circle cx="286.66666666666663" cy="335.8741366307076" r="4" fill="#3b82f6"/>
  <circle cx="513.3333333333333" cy="335.7927100777514" r="4" fill="#3b82f6"/>
  <circle cx="740" cy="335.82283902371415" r="4" fill="#3b82f6"/>
  <polyline points="60,307.39608222332186 286.66666666666663,307.0434672451977 513.3333333333333,307.84682741787685 740,307.19389194136386" fill="none" stroke="#ef4444" stroke-width="2"/>
  <circle cx="60" cy="307.39608222332186" r="4" fill="#ef4444"/>
  <circle cx="286.66666666666663" cy="307.0434672451977" r="4" fill="#ef4444"/>
  <circle cx="513.3333333333333" cy="307.84682741787685" r="4" fill="#ef4444"/>
  <circle cx="740" cy="307.19389194136386" r="4" fill="#ef4444"/>
  <polyline points="60,86.02573609107884 286.66666666666663,94.85956036510967 513.3333333333333,105.09349341191458 740,85.45454545454547" fill="none" stroke="#10b981" stroke-width="2"/>
  <circle cx="60" cy="86.02573609107884" r="4" fill="#10b981"/>
  <circle cx="286.66666666666663" cy="94.85956036510967" r="4" fill="#10b981"/>
  <circle cx="513.3333333333333" cy="105.09349341191458" r="4" fill="#10b981"/>
  <circle cx="740" cy="85.45454545454547" r="4" fill="#10b981"/>
  <rect x="650" y="42" width="12" height="12" fill="#3b82f6"/>
  <text x="668" y="53" font-size="12" fill="#374151">React Router</text>
  <rect x="650" y="62" width="12" height="12" fill="#ef4444"/>
  <text x="668" y="73" font-size="12" fill="#374151">Wouter</text>
  <rect x="650" y="82" width="12" height="12" fill="#10b981"/>
  <text x="668" y="93" font-size="12" fill="#374151">Zen Router</text>
</svg>