<svg width="800" height="400" xmlns="http://www.w3.org/2000/svg">
  <!-- Background -->
  <rect width="800" height="400" fill="white"/>

  <!-- Title -->
  <text x="400" y="30" text-anchor="middle" font-size="18" font-weight="bold" fill="#1f2937">
    Dynamic Route Matching (1 param) - Performance Trend
  </text>

  <!-- Grid lines -->
  <line x1="60" y1="60" x2="740" y2="60" stroke="#e5e7eb" stroke-width="1"/>
  <text x="50" y="65" text-anchor="end" font-size="12" fill="#6b7280">
    2.8M
  </text>
  <line x1="60" y1="116" x2="740" y2="116" stroke="#e5e7eb" stroke-width="1"/>
  <text x="50" y="121" text-anchor="end" font-size="12" fill="#6b7280">
    2.3M
  </text>
  <line x1="60" y1="172" x2="740" y2="172" stroke="#e5e7eb" stroke-width="1"/>
  <text x="50" y="177" text-anchor="end" font-size="12" fill="#6b7280">
    1.7M
  </text>
  <line x1="60" y1="228" x2="740" y2="228" stroke="#e5e7eb" stroke-width="1"/>
  <text x="50" y="233" text-anchor="end" font-size="12" fill="#6b7280">
    1.1M
  </text>
  <line x1="60" y1="284" x2="740" y2="284" stroke="#e5e7eb" stroke-width="1"/>
  <text x="50" y="289" text-anchor="end" font-size="12" fill="#6b7280">
    569K
  </text>
  <line x1="60" y1="340" x2="740" y2="340" stroke="#e5e7eb" stroke-width="1"/>
  <text x="50" y="345" text-anchor="end" font-size="12" fill="#6b7280">
    0
  </text>
  <text x="60" y="365" text-anchor="middle" font-size="10" fill="#6b7280" transform="rotate(-45, 60, 365)">
    11-07
  </text>
  <text x="230" y="365" text-anchor="middle" font-size="10" fill="#6b7280" transform="rotate(-45, 230, 365)">
    11-08
  </text>
  <text x="400" y="365" text-anchor="middle" font-size="10" fill="#6b7280" transform="rotate(-45, 400, 365)">
    11-09
  </text>
  <text x="570" y="365" text-anchor="middle" font-size="10" fill="#6b7280" transform="rotate(-45, 570, 365)">
    11-10
  </text>
  <text x="740" y="365" text-anchor="middle" font-size="10" fill="#6b7280" transform="rotate(-45, 740, 365)">
    11-11
  </text>
  <polyline points="60,336.13873254226064 230,336.1581798400971 400,336.082359061584 570,336.1308058586775 740,335.82951612176595" fill="none" stroke="#3b82f6" stroke-width="2"/>
  <circle cx="60" cy="336.13873254226064" r="4" fill="#3b82f6"/>
  <circle cx="230" cy="336.1581798400971" r="4" fill="#3b82f6"/>
  <circle cx="400" cy="336.082359061584" r="4" fill="#3b82f6"/>
  <circle cx="570" cy="336.1308058586775" r="4" fill="#3b82f6"/>
  <circle cx="740" cy="335.82951612176595" r="4" fill="#3b82f6"/>
  <polyline points="60,309.6406842896156 230,309.3123449311862 400,310.060398133828 570,309.4485610708708 740,310.7067783379708" fill="none" stroke="#ef4444" stroke-width="2"/>
  <circle cx="60" cy="309.6406842896156" r="4" fill="#ef4444"/>
  <circle cx="230" cy="309.3123449311862" r="4" fill="#ef4444"/>
  <circle cx="400" cy="310.060398133828" r="4" fill="#ef4444"/>
  <circle cx="570" cy="309.4485610708708" r="4" fill="#ef4444"/>
  <circle cx="740" cy="310.7067783379708" r="4" fill="#ef4444"/>
  <polyline points="60,103.51048014730341 230,111.73614375933707 400,121.26552628492817 570,112.40214800919418 740,85.45454545454547" fill="none" stroke="#10b981" stroke-width="2"/>
  <circle cx="60" cy="103.51048014730341" r="4" fill="#10b981"/>
  <circle cx="230" cy="111.73614375933707" r="4" fill="#10b981"/>
  <circle cx="400" cy="121.26552628492817" r="4" fill="#10b981"/>
  <circle cx="570" cy="112.40214800919418" r="4" fill="#10b981"/>
  <circle cx="740" cy="85.45454545454547" r="4" fill="#10b981"/>
  <rect x="650" y="42" width="12" height="12" fill="#3b82f6"/>
  <text x="668" y="53" font-size="12" fill="#374151">React Router</text>
  <rect x="650" y="62" width="12" height="12" fill="#ef4444"/>
  <text x="668" y="73" font-size="12" fill="#374151">Wouter</text>
  <rect x="650" y="82" width="12" height="12" fill="#10b981"/>
  <text x="668" y="93" font-size="12" fill="#374151">Zen Router</text>
</svg>