<svg width="800" height="400" xmlns="http://www.w3.org/2000/svg">
  <!-- Background -->
  <rect width="800" height="400" fill="white"/>

  <!-- Title -->
  <text x="400" y="30" text-anchor="middle" font-size="18" font-weight="bold" fill="#1f2937">
    Nested Dynamic Routes (2 params) - Performance Trend
  </text>

  <!-- Grid lines -->
  <line x1="60" y1="60" x2="740" y2="60" stroke="#e5e7eb" stroke-width="1"/>
  <text x="50" y="65" text-anchor="end" font-size="12" fill="#6b7280">
    1.9M
  </text>
  <line x1="60" y1="116" x2="740" y2="116" stroke="#e5e7eb" stroke-width="1"/>
  <text x="50" y="121" text-anchor="end" font-size="12" fill="#6b7280">
    1.5M
  </text>
  <line x1="60" y1="172" x2="740" y2="172" stroke="#e5e7eb" stroke-width="1"/>
  <text x="50" y="177" text-anchor="end" font-size="12" fill="#6b7280">
    1.1M
  </text>
  <line x1="60" y1="228" x2="740" y2="228" stroke="#e5e7eb" stroke-width="1"/>
  <text x="50" y="233" text-anchor="end" font-size="12" fill="#6b7280">
    758K
  </text>
  <line x1="60" y1="284" x2="740" y2="284" stroke="#e5e7eb" stroke-width="1"/>
  <text x="50" y="289" text-anchor="end" font-size="12" fill="#6b7280">
    379K
  </text>
  <line x1="60" y1="340" x2="740" y2="340" stroke="#e5e7eb" stroke-width="1"/>
  <text x="50" y="345" text-anchor="end" font-size="12" fill="#6b7280">
    0
  </text>
  <text x="60" y="365" text-anchor="middle" font-size="10" fill="#6b7280" transform="rotate(-45, 60, 365)">
    11-07
  </text>
  <text x="230" y="365" text-anchor="middle" font-size="10" fill="#6b7280" transform="rotate(-45, 230, 365)">
    11-08
  </text>
  <text x="400" y="365" text-anchor="middle" font-size="10" fill="#6b7280" transform="rotate(-45, 400, 365)">
    11-09
  </text>
  <text x="570" y="365" text-anchor="middle" font-size="10" fill="#6b7280" transform="rotate(-45, 570, 365)">
    11-10
  </text>
  <text x="740" y="365" text-anchor="middle" font-size="10" fill="#6b7280" transform="rotate(-45, 740, 365)">
    11-11
  </text>
  <polyline points="60,332.046794957761 230,331.94390962902605 400,331.68919009176733 570,331.7523494019207 740,331.6825600979155" fill="none" stroke="#3b82f6" stroke-width="2"/>
  <circle cx="60" cy="332.046794957761" r="4" fill="#3b82f6"/>
  <circle cx="230" cy="331.94390962902605" r="4" fill="#3b82f6"/>
  <circle cx="400" cy="331.68919009176733" r="4" fill="#3b82f6"/>
  <circle cx="570" cy="331.7523494019207" r="4" fill="#3b82f6"/>
  <circle cx="740" cy="331.6825600979155" r="4" fill="#3b82f6"/>
  <polyline points="60,311.90454900941364 230,311.56206839431144 400,311.87087496245556 570,312.4250963225785 740,311.49152652375295" fill="none" stroke="#ef4444" stroke-width="2"/>
  <circle cx="60" cy="311.90454900941364" r="4" fill="#ef4444"/>
  <circle cx="230" cy="311.56206839431144" r="4" fill="#ef4444"/>
  <circle cx="400" cy="311.87087496245556" r="4" fill="#ef4444"/>
  <circle cx="570" cy="312.4250963225785" r="4" fill="#ef4444"/>
  <circle cx="740" cy="311.49152652375295" r="4" fill="#ef4444"/>
  <polyline points="60,102.74394245746291 230,113.58599593052165 400,111.90574230228623 570,108.75334651741767 740,85.45454545454547" fill="none" stroke="#10b981" stroke-width="2"/>
  <circle cx="60" cy="102.74394245746291" r="4" fill="#10b981"/>
  <circle cx="230" cy="113.58599593052165" r="4" fill="#10b981"/>
  <circle cx="400" cy="111.90574230228623" r="4" fill="#10b981"/>
  <circle cx="570" cy="108.75334651741767" r="4" fill="#10b981"/>
  <circle cx="740" cy="85.45454545454547" r="4" fill="#10b981"/>
  <rect x="650" y="42" width="12" height="12" fill="#3b82f6"/>
  <text x="668" y="53" font-size="12" fill="#374151">React Router</text>
  <rect x="650" y="62" width="12" height="12" fill="#ef4444"/>
  <text x="668" y="73" font-size="12" fill="#374151">Wouter</text>
  <rect x="650" y="82" width="12" height="12" fill="#10b981"/>
  <text x="668" y="93" font-size="12" fill="#374151">Zen Router</text>
</svg>