<svg width="800" height="400" xmlns="http://www.w3.org/2000/svg">
  <!-- Background -->
  <rect width="800" height="400" fill="white"/>

  <!-- Title -->
  <text x="400" y="30" text-anchor="middle" font-size="18" font-weight="bold" fill="#1f2937">
    Simple Route Matching - Performance Trend
  </text>

  <!-- Grid lines -->
  <line x1="60" y1="60" x2="740" y2="60" stroke="#e5e7eb" stroke-width="1"/>
  <text x="50" y="65" text-anchor="end" font-size="12" fill="#6b7280">
    7.0M
  </text>
  <line x1="60" y1="116" x2="740" y2="116" stroke="#e5e7eb" stroke-width="1"/>
  <text x="50" y="121" text-anchor="end" font-size="12" fill="#6b7280">
    5.6M
  </text>
  <line x1="60" y1="172" x2="740" y2="172" stroke="#e5e7eb" stroke-width="1"/>
  <text x="50" y="177" text-anchor="end" font-size="12" fill="#6b7280">
    4.2M
  </text>
  <line x1="60" y1="228" x2="740" y2="228" stroke="#e5e7eb" stroke-width="1"/>
  <text x="50" y="233" text-anchor="end" font-size="12" fill="#6b7280">
    2.8M
  </text>
  <line x1="60" y1="284" x2="740" y2="284" stroke="#e5e7eb" stroke-width="1"/>
  <text x="50" y="289" text-anchor="end" font-size="12" fill="#6b7280">
    1.4M
  </text>
  <line x1="60" y1="340" x2="740" y2="340" stroke="#e5e7eb" stroke-width="1"/>
  <text x="50" y="345" text-anchor="end" font-size="12" fill="#6b7280">
    0
  </text>
  <text x="60" y="365" text-anchor="middle" font-size="10" fill="#6b7280" transform="rotate(-45, 60, 365)">
    11-07
  </text>
  <text x="230" y="365" text-anchor="middle" font-size="10" fill="#6b7280" transform="rotate(-45, 230, 365)">
    11-08
  </text>
  <text x="400" y="365" text-anchor="middle" font-size="10" fill="#6b7280" transform="rotate(-45, 400, 365)">
    11-09
  </text>
  <text x="570" y="365" text-anchor="middle" font-size="10" fill="#6b7280" transform="rotate(-45, 570, 365)">
    11-10
  </text>
  <text x="740" y="365" text-anchor="middle" font-size="10" fill="#6b7280" transform="rotate(-45, 740, 365)">
    11-11
  </text>
  <polyline points="60,338.60789240692026 230,338.5574538778637 400,338.5735835996697 570,338.5690494078988 740,338.54882199731674" fill="none" stroke="#3b82f6" stroke-width="2"/>
  <circle cx="60" cy="338.60789240692026" r="4" fill="#3b82f6"/>
  <circle cx="230" cy="338.5574538778637" r="4" fill="#3b82f6"/>
  <circle cx="400" cy="338.5735835996697" r="4" fill="#3b82f6"/>
  <circle cx="570" cy="338.5690494078988" r="4" fill="#3b82f6"/>
  <circle cx="740" cy="338.54882199731674" r="4" fill="#3b82f6"/>
  <polyline points="60,303.3212217718818 230,303.1880426786451 400,302.80417881226526 570,303.28506785864636 740,303.13250926388764" fill="none" stroke="#ef4444" stroke-width="2"/>
  <circle cx="60" cy="303.3212217718818" r="4" fill="#ef4444"/>
  <circle cx="230" cy="303.1880426786451" r="4" fill="#ef4444"/>
  <circle cx="400" cy="302.80417881226526" r="4" fill="#ef4444"/>
  <circle cx="570" cy="303.28506785864636" r="4" fill="#ef4444"/>
  <circle cx="740" cy="303.13250926388764" r="4" fill="#ef4444"/>
  <polyline points="60,91.36437850106086 230,101.3446622076205 400,99.01823345782208 570,97.954452551022 740,85.45454545454547" fill="none" stroke="#10b981" stroke-width="2"/>
  <circle cx="60" cy="91.36437850106086" r="4" fill="#10b981"/>
  <circle cx="230" cy="101.3446622076205" r="4" fill="#10b981"/>
  <circle cx="400" cy="99.01823345782208" r="4" fill="#10b981"/>
  <circle cx="570" cy="97.954452551022" r="4" fill="#10b981"/>
  <circle cx="740" cy="85.45454545454547" r="4" fill="#10b981"/>
  <rect x="650" y="42" width="12" height="12" fill="#3b82f6"/>
  <text x="668" y="53" font-size="12" fill="#374151">React Router</text>
  <rect x="650" y="62" width="12" height="12" fill="#ef4444"/>
  <text x="668" y="73" font-size="12" fill="#374151">Wouter</text>
  <rect x="650" y="82" width="12" height="12" fill="#10b981"/>
  <text x="668" y="93" font-size="12" fill="#374151">Zen Router</text>
</svg>