<svg width="800" height="400" xmlns="http://www.w3.org/2000/svg">
  <!-- Background -->
  <rect width="800" height="400" fill="white"/>

  <!-- Title -->
  <text x="400" y="30" text-anchor="middle" font-size="18" font-weight="bold" fill="#1f2937">
    Static Route Matching - Performance Trend
  </text>

  <!-- Grid lines -->
  <line x1="60" y1="60" x2="740" y2="60" stroke="#e5e7eb" stroke-width="1"/>
  <text x="50" y="65" text-anchor="end" font-size="12" fill="#6b7280">
    8.7M
  </text>
  <line x1="60" y1="116" x2="740" y2="116" stroke="#e5e7eb" stroke-width="1"/>
  <text x="50" y="121" text-anchor="end" font-size="12" fill="#6b7280">
    7.0M
  </text>
  <line x1="60" y1="172" x2="740" y2="172" stroke="#e5e7eb" stroke-width="1"/>
  <text x="50" y="177" text-anchor="end" font-size="12" fill="#6b7280">
    5.2M
  </text>
  <line x1="60" y1="228" x2="740" y2="228" stroke="#e5e7eb" stroke-width="1"/>
  <text x="50" y="233" text-anchor="end" font-size="12" fill="#6b7280">
    3.5M
  </text>
  <line x1="60" y1="284" x2="740" y2="284" stroke="#e5e7eb" stroke-width="1"/>
  <text x="50" y="289" text-anchor="end" font-size="12" fill="#6b7280">
    1.7M
  </text>
  <line x1="60" y1="340" x2="740" y2="340" stroke="#e5e7eb" stroke-width="1"/>
  <text x="50" y="345" text-anchor="end" font-size="12" fill="#6b7280">
    0
  </text>
  <text x="60" y="365" text-anchor="middle" font-size="10" fill="#6b7280" transform="rotate(-45, 60, 365)">
    11-07
  </text>
  <text x="230" y="365" text-anchor="middle" font-size="10" fill="#6b7280" transform="rotate(-45, 230, 365)">
    11-08
  </text>
  <text x="400" y="365" text-anchor="middle" font-size="10" fill="#6b7280" transform="rotate(-45, 400, 365)">
    11-09
  </text>
  <text x="570" y="365" text-anchor="middle" font-size="10" fill="#6b7280" transform="rotate(-45, 570, 365)">
    11-10
  </text>
  <text x="740" y="365" text-anchor="middle" font-size="10" fill="#6b7280" transform="rotate(-45, 740, 365)">
    11-11
  </text>
  <polyline points="60,338.9964596394379 230,338.9857946496795 400,338.96557721241993 570,339.02831190104405 740,338.90832167033057" fill="none" stroke="#3b82f6" stroke-width="2"/>
  <circle cx="60" cy="338.9964596394379" r="4" fill="#3b82f6"/>
  <circle cx="230" cy="338.9857946496795" r="4" fill="#3b82f6"/>
  <circle cx="400" cy="338.96557721241993" r="4" fill="#3b82f6"/>
  <circle cx="570" cy="339.02831190104405" r="4" fill="#3b82f6"/>
  <circle cx="740" cy="338.90832167033057" r="4" fill="#3b82f6"/>
  <polyline points="60,289.5717687782691 230,290.69601174423536 400,289.7342916183708 570,289.1403622610342 740,284.9471306864819" fill="none" stroke="#ef4444" stroke-width="2"/>
  <circle cx="60" cy="289.5717687782691" r="4" fill="#ef4444"/>
  <circle cx="230" cy="290.69601174423536" r="4" fill="#ef4444"/>
  <circle cx="400" cy="289.7342916183708" r="4" fill="#ef4444"/>
  <circle cx="570" cy="289.1403622610342" r="4" fill="#ef4444"/>
  <circle cx="740" cy="284.9471306864819" r="4" fill="#ef4444"/>
  <polyline points="60,111.42093088814522 230,101.73211641394775 400,110.40985569434218 570,112.8638576156832 740,85.4545454545455" fill="none" stroke="#10b981" stroke-width="2"/>
  <circle cx="60" cy="111.42093088814522" r="4" fill="#10b981"/>
  <circle cx="230" cy="101.73211641394775" r="4" fill="#10b981"/>
  <circle cx="400" cy="110.40985569434218" r="4" fill="#10b981"/>
  <circle cx="570" cy="112.8638576156832" r="4" fill="#10b981"/>
  <circle cx="740" cy="85.4545454545455" r="4" fill="#10b981"/>
  <rect x="650" y="42" width="12" height="12" fill="#3b82f6"/>
  <text x="668" y="53" font-size="12" fill="#374151">React Router</text>
  <rect x="650" y="62" width="12" height="12" fill="#ef4444"/>
  <text x="668" y="73" font-size="12" fill="#374151">Wouter</text>
  <rect x="650" y="82" width="12" height="12" fill="#10b981"/>
  <text x="668" y="93" font-size="12" fill="#374151">Zen Router</text>
</svg>