<svg width="800" height="400" xmlns="http://www.w3.org/2000/svg">
  <!-- Background -->
  <rect width="800" height="400" fill="white"/>

  <!-- Title -->
  <text x="400" y="30" text-anchor="middle" font-size="18" font-weight="bold" fill="#1f2937">
    Array Remove - Performance Trend
  </text>

  <!-- Grid lines -->
  <line x1="60" y1="60" x2="740" y2="60" stroke="#e5e7eb" stroke-width="1"/>
  <text x="50" y="65" text-anchor="end" font-size="12" fill="#6b7280">
    3.2M
  </text>
  <line x1="60" y1="116" x2="740" y2="116" stroke="#e5e7eb" stroke-width="1"/>
  <text x="50" y="121" text-anchor="end" font-size="12" fill="#6b7280">
    2.6M
  </text>
  <line x1="60" y1="172" x2="740" y2="172" stroke="#e5e7eb" stroke-width="1"/>
  <text x="50" y="177" text-anchor="end" font-size="12" fill="#6b7280">
    1.9M
  </text>
  <line x1="60" y1="228" x2="740" y2="228" stroke="#e5e7eb" stroke-width="1"/>
  <text x="50" y="233" text-anchor="end" font-size="12" fill="#6b7280">
    1.3M
  </text>
  <line x1="60" y1="284" x2="740" y2="284" stroke="#e5e7eb" stroke-width="1"/>
  <text x="50" y="289" text-anchor="end" font-size="12" fill="#6b7280">
    639K
  </text>
  <line x1="60" y1="340" x2="740" y2="340" stroke="#e5e7eb" stroke-width="1"/>
  <text x="50" y="345" text-anchor="end" font-size="12" fill="#6b7280">
    0
  </text>
  <text x="60" y="365" text-anchor="middle" font-size="10" fill="#6b7280" transform="rotate(-45, 60, 365)">
    11-03
  </text>
  <text x="286.66666666666663" y="365" text-anchor="middle" font-size="10" fill="#6b7280" transform="rotate(-45, 286.66666666666663, 365)">
    11-04
  </text>
  <text x="513.3333333333333" y="365" text-anchor="middle" font-size="10" fill="#6b7280" transform="rotate(-45, 513.3333333333333, 365)">
    11-05
  </text>
  <text x="740" y="365" text-anchor="middle" font-size="10" fill="#6b7280" transform="rotate(-45, 740, 365)">
    11-06
  </text>
  <polyline points="60,301.67134149599593 286.66666666666663,301.67134149599593 513.3333333333333,301.67134149599593 740,302.77248582703555" fill="none" stroke="#3b82f6" stroke-width="2"/>
  <circle cx="60" cy="301.67134149599593" r="4" fill="#3b82f6"/>
  <circle cx="286.66666666666663" cy="301.67134149599593" r="4" fill="#3b82f6"/>
  <circle cx="513.3333333333333" cy="301.67134149599593" r="4" fill="#3b82f6"/>
  <circle cx="740" cy="302.77248582703555" r="4" fill="#3b82f6"/>
  <polyline points="60,284.232165958752 286.66666666666663,284.232165958752 513.3333333333333,284.232165958752 740,283.3716592186024" fill="none" stroke="#ef4444" stroke-width="2"/>
  <circle cx="60" cy="284.232165958752" r="4" fill="#ef4444"/>
  <circle cx="286.66666666666663" cy="284.232165958752" r="4" fill="#ef4444"/>
  <circle cx="513.3333333333333" cy="284.232165958752" r="4" fill="#ef4444"/>
  <circle cx="740" cy="283.3716592186024" r="4" fill="#ef4444"/>
  <polyline points="60,85.45454545454547 286.66666666666663,85.45454545454547 513.3333333333333,85.45454545454547 740,94.98387698038422" fill="none" stroke="#10b981" stroke-width="2"/>
  <circle cx="60" cy="85.45454545454547" r="4" fill="#10b981"/>
  <circle cx="286.66666666666663" cy="85.45454545454547" r="4" fill="#10b981"/>
  <circle cx="513.3333333333333" cy="85.45454545454547" r="4" fill="#10b981"/>
  <circle cx="740" cy="94.98387698038422" r="4" fill="#10b981"/>
  <polyline points="60,187.11653837917595 286.66666666666663,187.11653837917595 513.3333333333333,187.11653837917595 740,187.20410183407373" fill="none" stroke="#f59e0b" stroke-width="2"/>
  <circle cx="60" cy="187.11653837917595" r="4" fill="#f59e0b"/>
  <circle cx="286.66666666666663" cy="187.11653837917595" r="4" fill="#f59e0b"/>
  <circle cx="513.3333333333333" cy="187.11653837917595" r="4" fill="#f59e0b"/>
  <circle cx="740" cy="187.20410183407373" r="4" fill="#f59e0b"/>
  <polyline points="60,325.1657208660117 286.66666666666663,325.1657208660117 513.3333333333333,325.1657208660117 740,325.11327039929176" fill="none" stroke="#8b5cf6" stroke-width="2"/>
  <circle cx="60" cy="325.1657208660117" r="4" fill="#8b5cf6"/>
  <circle cx="286.66666666666663" cy="325.1657208660117" r="4" fill="#8b5cf6"/>
  <circle cx="513.3333333333333" cy="325.1657208660117" r="4" fill="#8b5cf6"/>
  <circle cx="740" cy="325.11327039929176" r="4" fill="#8b5cf6"/>
  <rect x="650" y="42" width="12" height="12" fill="#3b82f6"/>
  <text x="668" y="53" font-size="12" fill="#374151">Immer</text>
  <rect x="650" y="62" width="12" height="12" fill="#ef4444"/>
  <text x="668" y="73" font-size="12" fill="#374151">Mutative</text>
  <rect x="650" y="82" width="12" height="12" fill="#10b981"/>
  <text x="668" y="93" font-size="12" fill="#374151">Immutable.js</text>
  <rect x="650" y="102" width="12" height="12" fill="#f59e0b"/>
  <text x="668" y="113" font-size="12" fill="#374151">Immutability Helper</text>
  <rect x="650" y="122" width="12" height="12" fill="#8b5cf6"/>
  <text x="668" y="133" font-size="12" fill="#374151">Seamless Immutable</text>
  <rect x="650" y="142" width="12" height="12" fill="#ec4899"/>
  <text x="668" y="153" font-size="12" fill="#374151">Craft</text>
</svg>