<svg width="800" height="400" xmlns="http://www.w3.org/2000/svg">
  <!-- Background -->
  <rect width="800" height="400" fill="white"/>

  <!-- Title -->
  <text x="400" y="30" text-anchor="middle" font-size="18" font-weight="bold" fill="#1f2937">
    Array Update - Performance Trend
  </text>

  <!-- Grid lines -->
  <line x1="60" y1="60" x2="740" y2="60" stroke="#e5e7eb" stroke-width="1"/>
  <text x="50" y="65" text-anchor="end" font-size="12" fill="#6b7280">
    1.6M
  </text>
  <line x1="60" y1="116" x2="740" y2="116" stroke="#e5e7eb" stroke-width="1"/>
  <text x="50" y="121" text-anchor="end" font-size="12" fill="#6b7280">
    1.2M
  </text>
  <line x1="60" y1="172" x2="740" y2="172" stroke="#e5e7eb" stroke-width="1"/>
  <text x="50" y="177" text-anchor="end" font-size="12" fill="#6b7280">
    935K
  </text>
  <line x1="60" y1="228" x2="740" y2="228" stroke="#e5e7eb" stroke-width="1"/>
  <text x="50" y="233" text-anchor="end" font-size="12" fill="#6b7280">
    623K
  </text>
  <line x1="60" y1="284" x2="740" y2="284" stroke="#e5e7eb" stroke-width="1"/>
  <text x="50" y="289" text-anchor="end" font-size="12" fill="#6b7280">
    312K
  </text>
  <line x1="60" y1="340" x2="740" y2="340" stroke="#e5e7eb" stroke-width="1"/>
  <text x="50" y="345" text-anchor="end" font-size="12" fill="#6b7280">
    0
  </text>
  <text x="60" y="365" text-anchor="middle" font-size="10" fill="#6b7280" transform="rotate(-45, 60, 365)">
    11-03
  </text>
  <text x="196" y="365" text-anchor="middle" font-size="10" fill="#6b7280" transform="rotate(-45, 196, 365)">
    11-04
  </text>
  <text x="332" y="365" text-anchor="middle" font-size="10" fill="#6b7280" transform="rotate(-45, 332, 365)">
    11-05
  </text>
  <text x="468" y="365" text-anchor="middle" font-size="10" fill="#6b7280" transform="rotate(-45, 468, 365)">
    11-06
  </text>
  <text x="604" y="365" text-anchor="middle" font-size="10" fill="#6b7280" transform="rotate(-45, 604, 365)">
    11-07
  </text>
  <text x="740" y="365" text-anchor="middle" font-size="10" fill="#6b7280" transform="rotate(-45, 740, 365)">
    11-08
  </text>
  <polyline points="60,178.94185730784588 196,178.94185730784588 332,178.94185730784588 468,173.41982733178938 604,288.53556982656835 740,289.0746350589498" fill="none" stroke="#3b82f6" stroke-width="2"/>
  <circle cx="60" cy="178.94185730784588" r="4" fill="#3b82f6"/>
  <circle cx="196" cy="178.94185730784588" r="4" fill="#3b82f6"/>
  <circle cx="332" cy="178.94185730784588" r="4" fill="#3b82f6"/>
  <circle cx="468" cy="173.41982733178938" r="4" fill="#3b82f6"/>
  <circle cx="604" cy="288.53556982656835" r="4" fill="#3b82f6"/>
  <circle cx="740" cy="289.0746350589498" r="4" fill="#3b82f6"/>
  <polyline points="60,85.4545454545455 196,85.4545454545455 332,85.4545454545455 468,105.17932438504263 604,257.9316227446265 740,258.9402832055557" fill="none" stroke="#ef4444" stroke-width="2"/>
  <circle cx="60" cy="85.4545454545455" r="4" fill="#ef4444"/>
  <circle cx="196" cy="85.4545454545455" r="4" fill="#ef4444"/>
  <circle cx="332" cy="85.4545454545455" r="4" fill="#ef4444"/>
  <circle cx="468" cy="105.17932438504263" r="4" fill="#ef4444"/>
  <circle cx="604" cy="257.9316227446265" r="4" fill="#ef4444"/>
  <circle cx="740" cy="258.9402832055557" r="4" fill="#ef4444"/>
  <polyline points="60,239.831524800554 196,239.831524800554 332,239.831524800554 468,248.11398331999183 604,306.6196683920766 740,305.867477777829" fill="none" stroke="#10b981" stroke-width="2"/>
  <circle cx="60" cy="239.831524800554" r="4" fill="#10b981"/>
  <circle cx="196" cy="239.831524800554" r="4" fill="#10b981"/>
  <circle cx="332" cy="239.831524800554" r="4" fill="#10b981"/>
  <circle cx="468" cy="248.11398331999183" r="4" fill="#10b981"/>
  <circle cx="604" cy="306.6196683920766" r="4" fill="#10b981"/>
  <circle cx="740" cy="305.867477777829" r="4" fill="#10b981"/>
  <polyline points="60,116.32919388325058 196,116.32919388325058 332,116.32919388325058 468,128.38276933685003 604,268.24973382584005 740,267.90579687491964" fill="none" stroke="#f59e0b" stroke-width="2"/>
  <circle cx="60" cy="116.32919388325058" r="4" fill="#f59e0b"/>
  <circle cx="196" cy="116.32919388325058" r="4" fill="#f59e0b"/>
  <circle cx="332" cy="116.32919388325058" r="4" fill="#f59e0b"/>
  <circle cx="468" cy="128.38276933685003" r="4" fill="#f59e0b"/>
  <circle cx="604" cy="268.24973382584005" r="4" fill="#f59e0b"/>
  <circle cx="740" cy="267.90579687491964" r="4" fill="#f59e0b"/>
  <polyline points="60,324.90799484206 196,324.90799484206 332,324.90799484206 468,324.7317665201283 604,334.33547384104685 740,334.34129646333395" fill="none" stroke="#8b5cf6" stroke-width="2"/>
  <circle cx="60" cy="324.90799484206" r="4" fill="#8b5cf6"/>
  <circle cx="196" cy="324.90799484206" r="4" fill="#8b5cf6"/>
  <circle cx="332" cy="324.90799484206" r="4" fill="#8b5cf6"/>
  <circle cx="468" cy="324.7317665201283" r="4" fill="#8b5cf6"/>
  <circle cx="604" cy="334.33547384104685" r="4" fill="#8b5cf6"/>
  <circle cx="740" cy="334.34129646333395" r="4" fill="#8b5cf6"/>
  <polyline points="468,94.95168280075296 604,251.8531896636103 740,255.7246013195779" fill="none" stroke="#ec4899" stroke-width="2"/>
  <circle cx="468" cy="94.95168280075296" r="4" fill="#ec4899"/>
  <circle cx="604" cy="251.8531896636103" r="4" fill="#ec4899"/>
  <circle cx="740" cy="255.7246013195779" r="4" fill="#ec4899"/>
  <rect x="650" y="42" width="12" height="12" fill="#3b82f6"/>
  <text x="668" y="53" font-size="12" fill="#374151">Immer</text>
  <rect x="650" y="62" width="12" height="12" fill="#ef4444"/>
  <text x="668" y="73" font-size="12" fill="#374151">Mutative</text>
  <rect x="650" y="82" width="12" height="12" fill="#10b981"/>
  <text x="668" y="93" font-size="12" fill="#374151">Immutable.js</text>
  <rect x="650" y="102" width="12" height="12" fill="#f59e0b"/>
  <text x="668" y="113" font-size="12" fill="#374151">Immutability Helper</text>
  <rect x="650" y="122" width="12" height="12" fill="#8b5cf6"/>
  <text x="668" y="133" font-size="12" fill="#374151">Seamless Immutable</text>
  <rect x="650" y="142" width="12" height="12" fill="#ec4899"/>
  <text x="668" y="153" font-size="12" fill="#374151">Craft</text>
</svg>