<svg width="800" height="400" xmlns="http://www.w3.org/2000/svg">
  <!-- Background -->
  <rect width="800" height="400" fill="white"/>

  <!-- Title -->
  <text x="400" y="30" text-anchor="middle" font-size="18" font-weight="bold" fill="#1f2937">
    Array Update - Performance Trend
  </text>

  <!-- Grid lines -->
  <line x1="60" y1="60" x2="740" y2="60" stroke="#e5e7eb" stroke-width="1"/>
  <text x="50" y="65" text-anchor="end" font-size="12" fill="#6b7280">
    1.7M
  </text>
  <line x1="60" y1="116" x2="740" y2="116" stroke="#e5e7eb" stroke-width="1"/>
  <text x="50" y="121" text-anchor="end" font-size="12" fill="#6b7280">
    1.4M
  </text>
  <line x1="60" y1="172" x2="740" y2="172" stroke="#e5e7eb" stroke-width="1"/>
  <text x="50" y="177" text-anchor="end" font-size="12" fill="#6b7280">
    1.0M
  </text>
  <line x1="60" y1="228" x2="740" y2="228" stroke="#e5e7eb" stroke-width="1"/>
  <text x="50" y="233" text-anchor="end" font-size="12" fill="#6b7280">
    677K
  </text>
  <line x1="60" y1="284" x2="740" y2="284" stroke="#e5e7eb" stroke-width="1"/>
  <text x="50" y="289" text-anchor="end" font-size="12" fill="#6b7280">
    338K
  </text>
  <line x1="60" y1="340" x2="740" y2="340" stroke="#e5e7eb" stroke-width="1"/>
  <text x="50" y="345" text-anchor="end" font-size="12" fill="#6b7280">
    0
  </text>
  <text x="60" y="365" text-anchor="middle" font-size="10" fill="#6b7280" transform="rotate(-45, 60, 365)">
    11-03
  </text>
  <text x="286.66666666666663" y="365" text-anchor="middle" font-size="10" fill="#6b7280" transform="rotate(-45, 286.66666666666663, 365)">
    11-04
  </text>
  <text x="513.3333333333333" y="365" text-anchor="middle" font-size="10" fill="#6b7280" transform="rotate(-45, 513.3333333333333, 365)">
    11-05
  </text>
  <text x="740" y="365" text-anchor="middle" font-size="10" fill="#6b7280" transform="rotate(-45, 740, 365)">
    11-06
  </text>
  <polyline points="60,191.5822586698447 286.66666666666663,191.5822586698447 513.3333333333333,191.5822586698447 740,183.92415499528238" fill="none" stroke="#3b82f6" stroke-width="2"/>
  <circle cx="60" cy="191.5822586698447" r="4" fill="#3b82f6"/>
  <circle cx="286.66666666666663" cy="191.5822586698447" r="4" fill="#3b82f6"/>
  <circle cx="513.3333333333333" cy="191.5822586698447" r="4" fill="#3b82f6"/>
  <circle cx="740" cy="183.92415499528238" r="4" fill="#3b82f6"/>
  <polyline points="60,105.43215513353573 286.66666666666663,105.43215513353573 513.3333333333333,105.43215513353573 740,113.24807957953826" fill="none" stroke="#ef4444" stroke-width="2"/>
  <circle cx="60" cy="105.43215513353573" r="4" fill="#ef4444"/>
  <circle cx="286.66666666666663" cy="105.43215513353573" r="4" fill="#ef4444"/>
  <circle cx="513.3333333333333" cy="105.43215513353573" r="4" fill="#ef4444"/>
  <circle cx="740" cy="113.24807957953826" r="4" fill="#ef4444"/>
  <polyline points="60,247.6930939778453 286.66666666666663,247.6930939778453 513.3333333333333,247.6930939778453 740,255.29135588556557" fill="none" stroke="#10b981" stroke-width="2"/>
  <circle cx="60" cy="247.6930939778453" r="4" fill="#10b981"/>
  <circle cx="286.66666666666663" cy="247.6930939778453" r="4" fill="#10b981"/>
  <circle cx="513.3333333333333" cy="247.6930939778453" r="4" fill="#10b981"/>
  <circle cx="740" cy="255.29135588556557" r="4" fill="#10b981"/>
  <polyline points="60,133.88365412362228 286.66666666666663,133.88365412362228 513.3333333333333,133.88365412362228 740,132.849477901812" fill="none" stroke="#f59e0b" stroke-width="2"/>
  <circle cx="60" cy="133.88365412362228" r="4" fill="#f59e0b"/>
  <circle cx="286.66666666666663" cy="133.88365412362228" r="4" fill="#f59e0b"/>
  <circle cx="513.3333333333333" cy="133.88365412362228" r="4" fill="#f59e0b"/>
  <circle cx="740" cy="132.849477901812" r="4" fill="#f59e0b"/>
  <polyline points="60,326.09246772474035 286.66666666666663,326.09246772474035 513.3333333333333,326.09246772474035 740,324.90940735953984" fill="none" stroke="#8b5cf6" stroke-width="2"/>
  <circle cx="60" cy="326.09246772474035" r="4" fill="#8b5cf6"/>
  <circle cx="286.66666666666663" cy="326.09246772474035" r="4" fill="#8b5cf6"/>
  <circle cx="513.3333333333333" cy="326.09246772474035" r="4" fill="#8b5cf6"/>
  <circle cx="740" cy="324.90940735953984" r="4" fill="#8b5cf6"/>
  <rect x="650" y="42" width="12" height="12" fill="#3b82f6"/>
  <text x="668" y="53" font-size="12" fill="#374151">Immer</text>
  <rect x="650" y="62" width="12" height="12" fill="#ef4444"/>
  <text x="668" y="73" font-size="12" fill="#374151">Mutative</text>
  <rect x="650" y="82" width="12" height="12" fill="#10b981"/>
  <text x="668" y="93" font-size="12" fill="#374151">Immutable.js</text>
  <rect x="650" y="102" width="12" height="12" fill="#f59e0b"/>
  <text x="668" y="113" font-size="12" fill="#374151">Immutability Helper</text>
  <rect x="650" y="122" width="12" height="12" fill="#8b5cf6"/>
  <text x="668" y="133" font-size="12" fill="#374151">Seamless Immutable</text>
  <rect x="650" y="142" width="12" height="12" fill="#ec4899"/>
  <text x="668" y="153" font-size="12" fill="#374151">Craft</text>
</svg>