<svg width="800" height="400" xmlns="http://www.w3.org/2000/svg">
  <!-- Background -->
  <rect width="800" height="400" fill="white"/>

  <!-- Title -->
  <text x="400" y="30" text-anchor="middle" font-size="18" font-weight="bold" fill="#1f2937">
    Nested Object Update - Performance Trend
  </text>

  <!-- Grid lines -->
  <line x1="60" y1="60" x2="740" y2="60" stroke="#e5e7eb" stroke-width="1"/>
  <text x="50" y="65" text-anchor="end" font-size="12" fill="#6b7280">
    1.7M
  </text>
  <line x1="60" y1="116" x2="740" y2="116" stroke="#e5e7eb" stroke-width="1"/>
  <text x="50" y="121" text-anchor="end" font-size="12" fill="#6b7280">
    1.4M
  </text>
  <line x1="60" y1="172" x2="740" y2="172" stroke="#e5e7eb" stroke-width="1"/>
  <text x="50" y="177" text-anchor="end" font-size="12" fill="#6b7280">
    1.0M
  </text>
  <line x1="60" y1="228" x2="740" y2="228" stroke="#e5e7eb" stroke-width="1"/>
  <text x="50" y="233" text-anchor="end" font-size="12" fill="#6b7280">
    681K
  </text>
  <line x1="60" y1="284" x2="740" y2="284" stroke="#e5e7eb" stroke-width="1"/>
  <text x="50" y="289" text-anchor="end" font-size="12" fill="#6b7280">
    340K
  </text>
  <line x1="60" y1="340" x2="740" y2="340" stroke="#e5e7eb" stroke-width="1"/>
  <text x="50" y="345" text-anchor="end" font-size="12" fill="#6b7280">
    0
  </text>
  <text x="60" y="365" text-anchor="middle" font-size="10" fill="#6b7280" transform="rotate(-45, 60, 365)">
    11-03
  </text>
  <text x="196" y="365" text-anchor="middle" font-size="10" fill="#6b7280" transform="rotate(-45, 196, 365)">
    11-04
  </text>
  <text x="332" y="365" text-anchor="middle" font-size="10" fill="#6b7280" transform="rotate(-45, 332, 365)">
    11-05
  </text>
  <text x="468" y="365" text-anchor="middle" font-size="10" fill="#6b7280" transform="rotate(-45, 468, 365)">
    11-06
  </text>
  <text x="604" y="365" text-anchor="middle" font-size="10" fill="#6b7280" transform="rotate(-45, 604, 365)">
    11-07
  </text>
  <text x="740" y="365" text-anchor="middle" font-size="10" fill="#6b7280" transform="rotate(-45, 740, 365)">
    11-08
  </text>
  <polyline points="60,234.56939779864427 196,234.56939779864427 332,234.56939779864427 468,235.53169346419492 604,314.6115966096803 740,314.2762305721509" fill="none" stroke="#3b82f6" stroke-width="2"/>
  <circle cx="60" cy="234.56939779864427" r="4" fill="#3b82f6"/>
  <circle cx="196" cy="234.56939779864427" r="4" fill="#3b82f6"/>
  <circle cx="332" cy="234.56939779864427" r="4" fill="#3b82f6"/>
  <circle cx="468" cy="235.53169346419492" r="4" fill="#3b82f6"/>
  <circle cx="604" cy="314.6115966096803" r="4" fill="#3b82f6"/>
  <circle cx="740" cy="314.2762305721509" r="4" fill="#3b82f6"/>
  <polyline points="60,138.78414193594213 196,138.78414193594213 332,138.78414193594213 468,147.68916544570212 604,272.74682194783725 740,278.10932256678404" fill="none" stroke="#ef4444" stroke-width="2"/>
  <circle cx="60" cy="138.78414193594213" r="4" fill="#ef4444"/>
  <circle cx="196" cy="138.78414193594213" r="4" fill="#ef4444"/>
  <circle cx="332" cy="138.78414193594213" r="4" fill="#ef4444"/>
  <circle cx="468" cy="147.68916544570212" r="4" fill="#ef4444"/>
  <circle cx="604" cy="272.74682194783725" r="4" fill="#ef4444"/>
  <circle cx="740" cy="278.10932256678404" r="4" fill="#ef4444"/>
  <polyline points="60,235.6629773379087 196,235.6629773379087 332,235.6629773379087 468,227.05114066266782 604,301.88412744268896 740,305.1051138199126" fill="none" stroke="#10b981" stroke-width="2"/>
  <circle cx="60" cy="235.6629773379087" r="4" fill="#10b981"/>
  <circle cx="196" cy="235.6629773379087" r="4" fill="#10b981"/>
  <circle cx="332" cy="235.6629773379087" r="4" fill="#10b981"/>
  <circle cx="468" cy="227.05114066266782" r="4" fill="#10b981"/>
  <circle cx="604" cy="301.88412744268896" r="4" fill="#10b981"/>
  <circle cx="740" cy="305.1051138199126" r="4" fill="#10b981"/>
  <polyline points="60,85.4545454545455 196,85.4545454545455 332,85.4545454545455 468,88.191213143992 604,257.13499261580796 740,253.6815195432966" fill="none" stroke="#f59e0b" stroke-width="2"/>
  <circle cx="60" cy="85.4545454545455" r="4" fill="#f59e0b"/>
  <circle cx="196" cy="85.4545454545455" r="4" fill="#f59e0b"/>
  <circle cx="332" cy="85.4545454545455" r="4" fill="#f59e0b"/>
  <circle cx="468" cy="88.191213143992" r="4" fill="#f59e0b"/>
  <circle cx="604" cy="257.13499261580796" r="4" fill="#f59e0b"/>
  <circle cx="740" cy="253.6815195432966" r="4" fill="#f59e0b"/>
  <polyline points="60,322.28078496597533 196,322.28078496597533 332,322.28078496597533 468,322.7196864728126 604,333.84168060099444 740,334.0441021188007" fill="none" stroke="#8b5cf6" stroke-width="2"/>
  <circle cx="60" cy="322.28078496597533" r="4" fill="#8b5cf6"/>
  <circle cx="196" cy="322.28078496597533" r="4" fill="#8b5cf6"/>
  <circle cx="332" cy="322.28078496597533" r="4" fill="#8b5cf6"/>
  <circle cx="468" cy="322.7196864728126" r="4" fill="#8b5cf6"/>
  <circle cx="604" cy="333.84168060099444" r="4" fill="#8b5cf6"/>
  <circle cx="740" cy="334.0441021188007" r="4" fill="#8b5cf6"/>
  <polyline points="468,132.1051463146322 604,283.5338941599757 740,284.42007675682976" fill="none" stroke="#ec4899" stroke-width="2"/>
  <circle cx="468" cy="132.1051463146322" r="4" fill="#ec4899"/>
  <circle cx="604" cy="283.5338941599757" r="4" fill="#ec4899"/>
  <circle cx="740" cy="284.42007675682976" r="4" fill="#ec4899"/>
  <rect x="650" y="42" width="12" height="12" fill="#3b82f6"/>
  <text x="668" y="53" font-size="12" fill="#374151">Immer</text>
  <rect x="650" y="62" width="12" height="12" fill="#ef4444"/>
  <text x="668" y="73" font-size="12" fill="#374151">Mutative</text>
  <rect x="650" y="82" width="12" height="12" fill="#10b981"/>
  <text x="668" y="93" font-size="12" fill="#374151">Immutable.js</text>
  <rect x="650" y="102" width="12" height="12" fill="#f59e0b"/>
  <text x="668" y="113" font-size="12" fill="#374151">Immutability Helper</text>
  <rect x="650" y="122" width="12" height="12" fill="#8b5cf6"/>
  <text x="668" y="133" font-size="12" fill="#374151">Seamless Immutable</text>
  <rect x="650" y="142" width="12" height="12" fill="#ec4899"/>
  <text x="668" y="153" font-size="12" fill="#374151">Craft</text>
</svg>