<svg width="800" height="400" xmlns="http://www.w3.org/2000/svg">
  <!-- Background -->
  <rect width="800" height="400" fill="white"/>

  <!-- Title -->
  <text x="400" y="30" text-anchor="middle" font-size="18" font-weight="bold" fill="#1f2937">
    Apply 100 inline styles - Performance Trend
  </text>

  <!-- Grid lines -->
  <line x1="60" y1="60" x2="740" y2="60" stroke="#e5e7eb" stroke-width="1"/>
  <text x="50" y="65" text-anchor="end" font-size="12" fill="#6b7280">
    340K
  </text>
  <line x1="60" y1="116" x2="740" y2="116" stroke="#e5e7eb" stroke-width="1"/>
  <text x="50" y="121" text-anchor="end" font-size="12" fill="#6b7280">
    272K
  </text>
  <line x1="60" y1="172" x2="740" y2="172" stroke="#e5e7eb" stroke-width="1"/>
  <text x="50" y="177" text-anchor="end" font-size="12" fill="#6b7280">
    204K
  </text>
  <line x1="60" y1="228" x2="740" y2="228" stroke="#e5e7eb" stroke-width="1"/>
  <text x="50" y="233" text-anchor="end" font-size="12" fill="#6b7280">
    136K
  </text>
  <line x1="60" y1="284" x2="740" y2="284" stroke="#e5e7eb" stroke-width="1"/>
  <text x="50" y="289" text-anchor="end" font-size="12" fill="#6b7280">
    68K
  </text>
  <line x1="60" y1="340" x2="740" y2="340" stroke="#e5e7eb" stroke-width="1"/>
  <text x="50" y="345" text-anchor="end" font-size="12" fill="#6b7280">
    0
  </text>
  <text x="60" y="365" text-anchor="middle" font-size="10" fill="#6b7280" transform="rotate(-45, 60, 365)">
    11-07
  </text>
  <text x="400" y="365" text-anchor="middle" font-size="10" fill="#6b7280" transform="rotate(-45, 400, 365)">
    11-08
  </text>
  <text x="740" y="365" text-anchor="middle" font-size="10" fill="#6b7280" transform="rotate(-45, 740, 365)">
    11-09
  </text>
  <polyline points="60,100.25105872631187 400,99.06202632957897 740,99.15825465747213" fill="none" stroke="#3b82f6" stroke-width="2"/>
  <circle cx="60" cy="100.25105872631187" r="4" fill="#3b82f6"/>
  <circle cx="400" cy="99.06202632957897" r="4" fill="#3b82f6"/>
  <circle cx="740" cy="99.15825465747213" r="4" fill="#3b82f6"/>
  <polyline points="60,101.68328764408335 400,101.56739420628335 740,102.54924226947489" fill="none" stroke="#ef4444" stroke-width="2"/>
  <circle cx="60" cy="101.68328764408335" r="4" fill="#ef4444"/>
  <circle cx="400" cy="101.56739420628335" r="4" fill="#ef4444"/>
  <circle cx="740" cy="102.54924226947489" r="4" fill="#ef4444"/>
  <polyline points="60,92.85550153390693 400,88.05662634166737 740,85.4545454545455" fill="none" stroke="#10b981" stroke-width="2"/>
  <circle cx="60" cy="92.85550153390693" r="4" fill="#10b981"/>
  <circle cx="400" cy="88.05662634166737" r="4" fill="#10b981"/>
  <circle cx="740" cy="85.4545454545455" r="4" fill="#10b981"/>
  <polyline points="60,101.21057289254384 400,98.03282710482114 740,96.8345463821071" fill="none" stroke="#f59e0b" stroke-width="2"/>
  <circle cx="60" cy="101.21057289254384" r="4" fill="#f59e0b"/>
  <circle cx="400" cy="98.03282710482114" r="4" fill="#f59e0b"/>
  <circle cx="740" cy="96.8345463821071" r="4" fill="#f59e0b"/>
  <rect x="650" y="42" width="12" height="12" fill="#3b82f6"/>
  <text x="668" y="53" font-size="12" fill="#374151">Silk - Apply styles</text>
  <rect x="650" y="62" width="12" height="12" fill="#ef4444"/>
  <text x="668" y="73" font-size="12" fill="#374151">Tailwind CSS - Apply styles</text>
  <rect x="650" y="82" width="12" height="12" fill="#10b981"/>
  <text x="668" y="93" font-size="12" fill="#374151">Panda CSS - Apply styles</text>
  <rect x="650" y="102" width="12" height="12" fill="#f59e0b"/>
  <text x="668" y="113" font-size="12" fill="#374151">UnoCSS - Apply styles</text>
</svg>