<svg width="800" height="400" xmlns="http://www.w3.org/2000/svg">
  <!-- Background -->
  <rect width="800" height="400" fill="white"/>

  <!-- Title -->
  <text x="400" y="30" text-anchor="middle" font-size="18" font-weight="bold" fill="#1f2937">
    Conditional styling (1000 iterations) - Performance Trend
  </text>

  <!-- Grid lines -->
  <line x1="60" y1="60" x2="740" y2="60" stroke="#e5e7eb" stroke-width="1"/>
  <text x="50" y="65" text-anchor="end" font-size="12" fill="#6b7280">
    3.0M
  </text>
  <line x1="60" y1="116" x2="740" y2="116" stroke="#e5e7eb" stroke-width="1"/>
  <text x="50" y="121" text-anchor="end" font-size="12" fill="#6b7280">
    2.4M
  </text>
  <line x1="60" y1="172" x2="740" y2="172" stroke="#e5e7eb" stroke-width="1"/>
  <text x="50" y="177" text-anchor="end" font-size="12" fill="#6b7280">
    1.8M
  </text>
  <line x1="60" y1="228" x2="740" y2="228" stroke="#e5e7eb" stroke-width="1"/>
  <text x="50" y="233" text-anchor="end" font-size="12" fill="#6b7280">
    1.2M
  </text>
  <line x1="60" y1="284" x2="740" y2="284" stroke="#e5e7eb" stroke-width="1"/>
  <text x="50" y="289" text-anchor="end" font-size="12" fill="#6b7280">
    609K
  </text>
  <line x1="60" y1="340" x2="740" y2="340" stroke="#e5e7eb" stroke-width="1"/>
  <text x="50" y="345" text-anchor="end" font-size="12" fill="#6b7280">
    0
  </text>
  <text x="60" y="365" text-anchor="middle" font-size="10" fill="#6b7280" transform="rotate(-45, 60, 365)">
    11-07
  </text>
  <text x="230" y="365" text-anchor="middle" font-size="10" fill="#6b7280" transform="rotate(-45, 230, 365)">
    11-08
  </text>
  <text x="400" y="365" text-anchor="middle" font-size="10" fill="#6b7280" transform="rotate(-45, 400, 365)">
    11-09
  </text>
  <text x="570" y="365" text-anchor="middle" font-size="10" fill="#6b7280" transform="rotate(-45, 570, 365)">
    11-10
  </text>
  <text x="740" y="365" text-anchor="middle" font-size="10" fill="#6b7280" transform="rotate(-45, 740, 365)">
    11-11
  </text>
  <polyline points="60,107.73167210217508 230,103.4867969989229 400,90.68705323772318 570,103.8709140626047 740,89.57115694696805" fill="none" stroke="#3b82f6" stroke-width="2"/>
  <circle cx="60" cy="107.73167210217508" r="4" fill="#3b82f6"/>
  <circle cx="230" cy="103.4867969989229" r="4" fill="#3b82f6"/>
  <circle cx="400" cy="90.68705323772318" r="4" fill="#3b82f6"/>
  <circle cx="570" cy="103.8709140626047" r="4" fill="#3b82f6"/>
  <circle cx="740" cy="89.57115694696805" r="4" fill="#3b82f6"/>
  <polyline points="60,104.96738611065584 230,103.0115266502473 400,87.21048569296133 570,111.8164949446178 740,91.62540705027087" fill="none" stroke="#ef4444" stroke-width="2"/>
  <circle cx="60" cy="104.96738611065584" r="4" fill="#ef4444"/>
  <circle cx="230" cy="103.0115266502473" r="4" fill="#ef4444"/>
  <circle cx="400" cy="87.21048569296133" r="4" fill="#ef4444"/>
  <circle cx="570" cy="111.8164949446178" r="4" fill="#ef4444"/>
  <circle cx="740" cy="91.62540705027087" r="4" fill="#ef4444"/>
  <polyline points="60,99.24025921015226 230,105.88926386051389 400,91.29018251381899 570,103.99332489188484 740,90.51067172656059" fill="none" stroke="#10b981" stroke-width="2"/>
  <circle cx="60" cy="99.24025921015226" r="4" fill="#10b981"/>
  <circle cx="230" cy="105.88926386051389" r="4" fill="#10b981"/>
  <circle cx="400" cy="91.29018251381899" r="4" fill="#10b981"/>
  <circle cx="570" cy="103.99332489188484" r="4" fill="#10b981"/>
  <circle cx="740" cy="90.51067172656059" r="4" fill="#10b981"/>
  <polyline points="60,100.37443166509448 230,102.75940445276578 400,94.09103245068505 570,103.56777299940796 740,85.45454545454547" fill="none" stroke="#f59e0b" stroke-width="2"/>
  <circle cx="60" cy="100.37443166509448" r="4" fill="#f59e0b"/>
  <circle cx="230" cy="102.75940445276578" r="4" fill="#f59e0b"/>
  <circle cx="400" cy="94.09103245068505" r="4" fill="#f59e0b"/>
  <circle cx="570" cy="103.56777299940796" r="4" fill="#f59e0b"/>
  <circle cx="740" cy="85.45454545454547" r="4" fill="#f59e0b"/>
  <rect x="650" y="42" width="12" height="12" fill="#3b82f6"/>
  <text x="668" y="53" font-size="12" fill="#374151">Silk - Conditional styles</text>
  <rect x="650" y="62" width="12" height="12" fill="#ef4444"/>
  <text x="668" y="73" font-size="12" fill="#374151">Tailwind CSS - Conditional styles</text>
  <rect x="650" y="82" width="12" height="12" fill="#10b981"/>
  <text x="668" y="93" font-size="12" fill="#374151">Panda CSS - Conditional styles</text>
  <rect x="650" y="102" width="12" height="12" fill="#f59e0b"/>
  <text x="668" y="113" font-size="12" fill="#374151">UnoCSS - Conditional styles</text>
</svg>