<svg width="800" height="400" xmlns="http://www.w3.org/2000/svg">
  <!-- Background -->
  <rect width="800" height="400" fill="white"/>

  <!-- Title -->
  <text x="400" y="30" text-anchor="middle" font-size="18" font-weight="bold" fill="#1f2937">
    String concatenation (complex className) - Performance Trend
  </text>

  <!-- Grid lines -->
  <line x1="60" y1="60" x2="740" y2="60" stroke="#e5e7eb" stroke-width="1"/>
  <text x="50" y="65" text-anchor="end" font-size="12" fill="#6b7280">
    21.4M
  </text>
  <line x1="60" y1="116" x2="740" y2="116" stroke="#e5e7eb" stroke-width="1"/>
  <text x="50" y="121" text-anchor="end" font-size="12" fill="#6b7280">
    17.2M
  </text>
  <line x1="60" y1="172" x2="740" y2="172" stroke="#e5e7eb" stroke-width="1"/>
  <text x="50" y="177" text-anchor="end" font-size="12" fill="#6b7280">
    12.9M
  </text>
  <line x1="60" y1="228" x2="740" y2="228" stroke="#e5e7eb" stroke-width="1"/>
  <text x="50" y="233" text-anchor="end" font-size="12" fill="#6b7280">
    8.6M
  </text>
  <line x1="60" y1="284" x2="740" y2="284" stroke="#e5e7eb" stroke-width="1"/>
  <text x="50" y="289" text-anchor="end" font-size="12" fill="#6b7280">
    4.3M
  </text>
  <line x1="60" y1="340" x2="740" y2="340" stroke="#e5e7eb" stroke-width="1"/>
  <text x="50" y="345" text-anchor="end" font-size="12" fill="#6b7280">
    0
  </text>
  <text x="60" y="365" text-anchor="middle" font-size="10" fill="#6b7280" transform="rotate(-45, 60, 365)">
    11-07
  </text>
  <text x="286.66666666666663" y="365" text-anchor="middle" font-size="10" fill="#6b7280" transform="rotate(-45, 286.66666666666663, 365)">
    11-08
  </text>
  <text x="513.3333333333333" y="365" text-anchor="middle" font-size="10" fill="#6b7280" transform="rotate(-45, 513.3333333333333, 365)">
    11-09
  </text>
  <text x="740" y="365" text-anchor="middle" font-size="10" fill="#6b7280" transform="rotate(-45, 740, 365)">
    11-10
  </text>
  <polyline points="60,105.44570667047304 286.66666666666663,105.00489631284572 513.3333333333333,95.74981241252624 740,91.58380651493175" fill="none" stroke="#3b82f6" stroke-width="2"/>
  <circle cx="60" cy="105.44570667047304" r="4" fill="#3b82f6"/>
  <circle cx="286.66666666666663" cy="105.00489631284572" r="4" fill="#3b82f6"/>
  <circle cx="513.3333333333333" cy="95.74981241252624" r="4" fill="#3b82f6"/>
  <circle cx="740" cy="91.58380651493175" r="4" fill="#3b82f6"/>
  <polyline points="60,104.12902073338162 286.66666666666663,103.88515704499113 513.3333333333333,97.75358917456717 740,86.75736007547604" fill="none" stroke="#ef4444" stroke-width="2"/>
  <circle cx="60" cy="104.12902073338162" r="4" fill="#ef4444"/>
  <circle cx="286.66666666666663" cy="103.88515704499113" r="4" fill="#ef4444"/>
  <circle cx="513.3333333333333" cy="97.75358917456717" r="4" fill="#ef4444"/>
  <circle cx="740" cy="86.75736007547604" r="4" fill="#ef4444"/>
  <polyline points="60,104.64725903488463 286.66666666666663,104.59003445456284 513.3333333333333,98.66287891614323 740,85.45454545454547" fill="none" stroke="#10b981" stroke-width="2"/>
  <circle cx="60" cy="104.64725903488463" r="4" fill="#10b981"/>
  <circle cx="286.66666666666663" cy="104.59003445456284" r="4" fill="#10b981"/>
  <circle cx="513.3333333333333" cy="98.66287891614323" r="4" fill="#10b981"/>
  <circle cx="740" cy="85.45454545454547" r="4" fill="#10b981"/>
  <polyline points="60,104.71888565191622 286.66666666666663,106.30514104597185 513.3333333333333,94.02359224811809 740,85.61749706526939" fill="none" stroke="#f59e0b" stroke-width="2"/>
  <circle cx="60" cy="104.71888565191622" r="4" fill="#f59e0b"/>
  <circle cx="286.66666666666663" cy="106.30514104597185" r="4" fill="#f59e0b"/>
  <circle cx="513.3333333333333" cy="94.02359224811809" r="4" fill="#f59e0b"/>
  <circle cx="740" cy="85.61749706526939" r="4" fill="#f59e0b"/>
  <rect x="650" y="42" width="12" height="12" fill="#3b82f6"/>
  <text x="668" y="53" font-size="12" fill="#374151">Silk - Concat 10 classes</text>
  <rect x="650" y="62" width="12" height="12" fill="#ef4444"/>
  <text x="668" y="73" font-size="12" fill="#374151">Tailwind CSS - Concat 10 classes</text>
  <rect x="650" y="82" width="12" height="12" fill="#10b981"/>
  <text x="668" y="93" font-size="12" fill="#374151">Panda CSS - Concat 10 classes</text>
  <rect x="650" y="102" width="12" height="12" fill="#f59e0b"/>
  <text x="668" y="113" font-size="12" fill="#374151">UnoCSS - Concat 10 classes</text>
</svg>