<svg width="800" height="400" xmlns="http://www.w3.org/2000/svg">
  <!-- Background -->
  <rect width="800" height="400" fill="white"/>

  <!-- Title -->
  <text x="400" y="30" text-anchor="middle" font-size="18" font-weight="bold" fill="#1f2937">
    Theme toggle (dark/light mode) - Performance Trend
  </text>

  <!-- Grid lines -->
  <line x1="60" y1="60" x2="740" y2="60" stroke="#e5e7eb" stroke-width="1"/>
  <text x="50" y="65" text-anchor="end" font-size="12" fill="#6b7280">
    603K
  </text>
  <line x1="60" y1="116" x2="740" y2="116" stroke="#e5e7eb" stroke-width="1"/>
  <text x="50" y="121" text-anchor="end" font-size="12" fill="#6b7280">
    482K
  </text>
  <line x1="60" y1="172" x2="740" y2="172" stroke="#e5e7eb" stroke-width="1"/>
  <text x="50" y="177" text-anchor="end" font-size="12" fill="#6b7280">
    362K
  </text>
  <line x1="60" y1="228" x2="740" y2="228" stroke="#e5e7eb" stroke-width="1"/>
  <text x="50" y="233" text-anchor="end" font-size="12" fill="#6b7280">
    241K
  </text>
  <line x1="60" y1="284" x2="740" y2="284" stroke="#e5e7eb" stroke-width="1"/>
  <text x="50" y="289" text-anchor="end" font-size="12" fill="#6b7280">
    121K
  </text>
  <line x1="60" y1="340" x2="740" y2="340" stroke="#e5e7eb" stroke-width="1"/>
  <text x="50" y="345" text-anchor="end" font-size="12" fill="#6b7280">
    0
  </text>
  <text x="60" y="365" text-anchor="middle" font-size="10" fill="#6b7280" transform="rotate(-45, 60, 365)">
    11-07
  </text>
  <text x="286.66666666666663" y="365" text-anchor="middle" font-size="10" fill="#6b7280" transform="rotate(-45, 286.66666666666663, 365)">
    11-08
  </text>
  <text x="513.3333333333333" y="365" text-anchor="middle" font-size="10" fill="#6b7280" transform="rotate(-45, 513.3333333333333, 365)">
    11-09
  </text>
  <text x="740" y="365" text-anchor="middle" font-size="10" fill="#6b7280" transform="rotate(-45, 740, 365)">
    11-10
  </text>
  <polyline points="60,100.28017950219021 286.66666666666663,106.24419903229301 513.3333333333333,114.14616290092673 740,86.4899944896303" fill="none" stroke="#3b82f6" stroke-width="2"/>
  <circle cx="60" cy="100.28017950219021" r="4" fill="#3b82f6"/>
  <circle cx="286.66666666666663" cy="106.24419903229301" r="4" fill="#3b82f6"/>
  <circle cx="513.3333333333333" cy="114.14616290092673" r="4" fill="#3b82f6"/>
  <circle cx="740" cy="86.4899944896303" r="4" fill="#3b82f6"/>
  <polyline points="60,100.09901109085811 286.66666666666663,101.44440072837077 513.3333333333333,122.06369864821482 740,99.24409484185239" fill="none" stroke="#ef4444" stroke-width="2"/>
  <circle cx="60" cy="100.09901109085811" r="4" fill="#ef4444"/>
  <circle cx="286.66666666666663" cy="101.44440072837077" r="4" fill="#ef4444"/>
  <circle cx="513.3333333333333" cy="122.06369864821482" r="4" fill="#ef4444"/>
  <circle cx="740" cy="99.24409484185239" r="4" fill="#ef4444"/>
  <polyline points="60,100.76848078061147 286.66666666666663,99.9748427797879 513.3333333333333,92.191220692998 740,100.48778638711829" fill="none" stroke="#10b981" stroke-width="2"/>
  <circle cx="60" cy="100.76848078061147" r="4" fill="#10b981"/>
  <circle cx="286.66666666666663" cy="99.9748427797879" r="4" fill="#10b981"/>
  <circle cx="513.3333333333333" cy="92.191220692998" r="4" fill="#10b981"/>
  <circle cx="740" cy="100.48778638711829" r="4" fill="#10b981"/>
  <polyline points="60,100.14668439541069 286.66666666666663,99.95731214208212 513.3333333333333,93.90330960614662 740,85.45454545454547" fill="none" stroke="#f59e0b" stroke-width="2"/>
  <circle cx="60" cy="100.14668439541069" r="4" fill="#f59e0b"/>
  <circle cx="286.66666666666663" cy="99.95731214208212" r="4" fill="#f59e0b"/>
  <circle cx="513.3333333333333" cy="93.90330960614662" r="4" fill="#f59e0b"/>
  <circle cx="740" cy="85.45454545454547" r="4" fill="#f59e0b"/>
  <rect x="650" y="42" width="12" height="12" fill="#3b82f6"/>
  <text x="668" y="53" font-size="12" fill="#374151">Silk - Toggle theme 1000x</text>
  <rect x="650" y="62" width="12" height="12" fill="#ef4444"/>
  <text x="668" y="73" font-size="12" fill="#374151">Tailwind CSS - Toggle theme 1000x</text>
  <rect x="650" y="82" width="12" height="12" fill="#10b981"/>
  <text x="668" y="93" font-size="12" fill="#374151">Panda CSS - Toggle theme 1000x</text>
  <rect x="650" y="102" width="12" height="12" fill="#f59e0b"/>
  <text x="668" y="113" font-size="12" fill="#374151">UnoCSS - Toggle theme 1000x</text>
</svg>